<svg width="16" height="16" viewBox="0 0 24 24" fill="none" xmlns="http://www.w3.org/2000/svg">
<path d="M18.37 2.63L14 7l-1.59-1.59a2 2 0 0 0-2.82 0L8 7.5a2 2 0 0 0 0 2.82L9.41 11.8a2 2 0 0 0 2.82 0L13 10.2l4.37-4.37a2.12 2.12 0 0 0 0-3 2.12 2.12 0 0 0-3 0z" fill="currentColor"/>
<path d="M8 13l2 2" stroke="currentColor" stroke-width="2" stroke-linecap="round" stroke-linejoin="round"/>
<path d="M2 20h2c1.1 0 2-.9 2-2v-2c0-1.1-.9-2-2-2H2v4z" fill="currentColor"/>
<path d="M6 20h2" stroke="currentColor" stroke-width="2" stroke-linecap="round" stroke-linejoin="round"/>
<path d="M10 20h2" stroke="currentColor" stroke-width="2" stroke-linecap="round" stroke-linejoin="round"/>
<path d="M14 20h2" stroke="currentColor" stroke-width="2" stroke-linecap="round" stroke-linejoin="round"/>
<path d="M18 20h2" stroke="currentColor" stroke-width="2" stroke-linecap="round" stroke-linejoin="round"/>
</svg>