<svg width="16" height="16" viewBox="0 0 24 24" fill="none" xmlns="http://www.w3.org/2000/svg">
<path d="M12 2C6.5 2 2 6.5 2 12s4.5 10 10 10c.926 0 1.648-.746 1.648-1.688 0-.437-.18-.835-.437-1.125-.29-.289-.438-.652-.438-1.125a1.64 1.64 0 0 1 1.668-1.668h1.996c3.051 0 5.555-2.503 5.555-5.554C21.965 6.012 17.461 2 12 2z" stroke="currentColor" stroke-width="2" fill="none" stroke-linecap="round" stroke-linejoin="round"/>
<circle cx="8" cy="8" r="1.5" fill="currentColor"/>
<circle cx="12" cy="6" r="1.5" fill="currentColor"/>
<circle cx="16" cy="8" r="1.5" fill="currentColor"/>
<circle cx="14" cy="12" r="1.5" fill="currentColor"/>
<circle cx="10" cy="14" r="1.5" fill="currentColor"/>
</svg>