<svg width="16" height="16" viewBox="0 0 24 24" fill="none" xmlns="http://www.w3.org/2000/svg">
<path d="M3 12c0-1.5 1.5-3 3-3s3 1.5 3 3-1.5 3-3 3-3-1.5-3-3z" fill="currentColor"/>
<path d="M9 12c0-1.5 1.5-3 3-3s3 1.5 3 3-1.5 3-3 3-3-1.5-3-3z" fill="currentColor"/>
<path d="M15 12c0-1.5 1.5-3 3-3s3 1.5 3 3-1.5 3-3 3-3-1.5-3-3z" fill="currentColor"/>
<path d="M2 8c0-2 2-4 4-4s4 2 4 4v8c0 2-2 4-4 4s-4-2-4-4V8z" stroke="currentColor" stroke-width="1.5" fill="none" stroke-linecap="round" stroke-linejoin="round"/>
<path d="M6 4c0-1 1-2 2-2s2 1 2 2v2" stroke="currentColor" stroke-width="1.5" fill="none" stroke-linecap="round" stroke-linejoin="round"/>
</svg>
