<svg width="120" height="120" viewBox="0 0 120 120" fill="none" xmlns="http://www.w3.org/2000/svg">
<path d="M80.4285 70.4999C77.0034 88.4434 61.9763 92.4948 54.75 92.2499C47 91.9999 32.325 85.8749 35.625 63.3749C35.662 63.1227 35.7006 62.8727 35.7409 62.6249M80.4285 70.4999C80.4989 70.1308 80.5645 69.7558 80.625 69.3749C80.7257 68.7404 80.8112 68.1154 80.8823 67.4999M80.4285 70.4999C78.6941 68.1249 73.8152 63.9749 68.1751 66.3749M68.1751 66.3749C69.4954 59.6814 71.7246 52.9366 71.25 51.7499C70.7025 50.3812 56.7926 49.1166 48.0938 48.5258C46.716 48.4323 45.4597 49.3001 45.0732 50.6259C44.0943 53.984 42.8999 58.5088 42.094 62.6249M68.1751 66.3749C67.6111 69.234 67.213 72.0838 67.2623 74.487C67.2879 75.7368 66.3468 76.8908 65.0969 76.8672C62.561 76.8194 59.5913 76.6506 56.625 76.3482M35.7409 62.6249C36.89 62.1249 39.7693 61.4249 42.094 62.6249M35.7409 62.6249C38.4879 45.7236 48.8428 38.7461 57 36.5051M42.094 62.6249C41.4111 66.1131 41.0072 69.3077 41.25 71.2499C41.4826 73.1107 45.1172 74.4627 49.8175 75.3749M57 36.5051C59.3979 35.8463 61.606 35.5968 63.375 35.6249C64.3118 35.5496 66.0911 36.1438 68.1751 37.446M57 36.5051C57.2116 34.8812 58.4084 32.0442 61.5 31.757M68.1751 37.446C68.1751 35.5951 68.7075 33.8485 66 32.6499M68.1751 37.446C73.6901 40.8923 81.3387 49.2972 81.1516 63.3749M49.8175 75.3749C51.941 75.787 54.2819 76.1093 56.625 76.3482M49.8175 75.3749C50.4617 76.7738 52.725 78.9268 56.625 76.3482M61.5 31.757C62.0608 31.7049 62.684 31.7367 63.375 31.8749C64.4808 32.0961 65.3374 32.3565 66 32.6499M61.5 31.757C67.125 26.4213 80.025 19.3499 86.625 33.7499C94.875 51.7499 88.6397 65.6249 80.8823 67.4999M80.8823 67.4999C81.047 66.0743 81.134 64.6995 81.1516 63.3749M66 32.6499C69.1038 30.0165 76.7491 26.5499 82.5 33.7499C89.6885 42.7499 86.625 61.1249 81.1516 63.3749M53.25 81.7499C51.9038 81.6463 50.8423 82.6673 50.625 83.9999C50.4076 85.3324 51.1507 86.703 52.5 86.9999C53.8492 87.2968 55.498 85.7251 55.5 84.3749C55.5019 83.0247 54.5961 81.8534 53.25 81.7499ZM61.5 80.9999C60.2573 80.9999 59.1464 82.1108 59.25 83.2499C59.3535 84.389 60.3562 85.1249 61.5 85.1249C62.6437 85.1249 63.6464 84.389 63.75 83.2499C63.8535 82.1108 62.7426 80.9999 61.5 80.9999ZM43.125 80.9999C43.0382 82.1404 43.9501 83.1358 45 83.2499C46.0498 83.3639 46.9543 82.7637 47.25 81.7499C47.5456 80.7361 46.8935 79.4188 45.75 79.1249C44.6064 78.831 43.2117 79.8594 43.125 80.9999Z" stroke="white"/>
</svg>
