<svg width="120" height="120" viewBox="0 0 120 120" fill="none" xmlns="http://www.w3.org/2000/svg">
<path d="M35.625 75.375L43.9746 33.6271C44.3518 31.741 46.018 30.3905 47.9413 30.4118L106.324 31.0605C109.379 31.0945 111.69 33.8364 111.205 36.853L104.537 78.375M35.625 75.375L29.625 77.7586M35.625 75.375L41.25 75.6199M104.537 78.375L104.193 80.5195C103.993 81.7659 103.216 82.8446 102.098 83.4297L81.9512 93.9678C80.3472 94.8068 78.5455 95.1947 76.7383 95.0901L11.0766 91.2886C9.48976 91.1968 8.25 89.8832 8.25 88.2937V86.625M104.537 78.375L98.625 81.2973M104.537 78.375L96.375 78.0197M8.25 86.625L77.9166 90.6583C78.9544 90.7184 79.99 90.5078 80.9219 90.0472L90 85.5603M8.25 86.625C8.25 86.3986 8.38811 86.1951 8.59851 86.1116L19.875 81.6319M19.875 81.6319L24.375 79.8442M19.875 81.6319L27.375 82.052M90 85.5603L93.75 83.7068M90 85.5603L84 85.2241M93.75 83.7068L24.375 79.8442M93.75 83.7068L98.625 81.2973M24.375 79.8442L29.625 77.7586M29.625 77.7586L98.625 81.2973M27.375 82.052L41.25 75.6199M27.375 82.052L33.75 82.4091M41.25 75.6199L44.625 75.7668M33.75 82.4091L44.625 75.7668M33.75 82.4091L39.75 82.7453M44.625 75.7668L48.75 75.9464M39.75 82.7453L48.75 75.9464M39.75 82.7453L45 83.0394M48.75 75.9464L54.75 76.2076M45 83.0394L54.75 76.2076M45 83.0394L51 83.3755M54.75 76.2076L60.375 76.4525M51 83.3755L60.375 76.4525M51 83.3755L57 83.7116M60.375 76.4525L67.125 76.7463M57 83.7116L67.125 76.7463M57 83.7116L63 84.0477M67.125 76.7463L72 76.9585M63 84.0477L72 76.9585M63 84.0477L68.25 84.3418M72 76.9585L78.375 77.2361M68.25 84.3418L78.375 77.2361M68.25 84.3418L73.5 84.6359M78.375 77.2361L85.875 77.5626M73.5 84.6359L85.875 77.5626M73.5 84.6359L79.125 84.951M85.875 77.5626L91.5 77.8074M79.125 84.951L91.5 77.8074M79.125 84.951L84 85.2241M91.5 77.8074L96.375 78.0197M84 85.2241L96.375 78.0197M57.529 87.4033L60.3582 85.8069C60.7956 85.5601 60.6369 84.8948 60.1352 84.872L42.858 84.0867C42.2973 84.0612 41.7406 84.1936 41.2513 84.4687L37.6427 86.498C37.3815 86.6449 37.4733 87.0417 37.7725 87.059L54.7839 88.0404C55.7411 88.0956 56.694 87.8745 57.529 87.4033ZM97.1072 75.2746L42.8323 73.2136C41.6065 73.167 40.7111 72.038 40.9449 70.8338L47.5285 36.9282C47.8023 35.5181 49.0371 34.5 50.4735 34.5H104.143C105.377 34.5 106.317 35.6077 106.116 36.8259L100.181 72.7656C99.9347 74.2568 98.6175 75.332 97.1072 75.2746Z" stroke="#1A6BBB"/>
</svg>
