<svg width="120" height="120" viewBox="0 0 120 120" fill="none" xmlns="http://www.w3.org/2000/svg">
<path d="M81.375 25.7177L55.4301 22.649C52.8817 22.3476 50.4949 23.9513 49.8108 26.4245L32.3557 89.5315C31.8545 91.3435 32.667 93.2621 34.3172 94.163M81.375 25.7177C82.7894 25.7548 85.2792 26.3433 86.8281 28.1703C88.2233 29.816 87.8377 32.1995 87.2804 34.2838L71.2142 94.3713C70.1657 98.2929 66.3462 100.808 62.3294 100.221L38.7501 96.7767C36.9874 96.5192 35.3958 95.5809 34.3172 94.163M81.375 25.7177C83.7449 25.9981 85.3116 28.3196 84.6847 30.6222L67.5042 93.7272C66.8549 96.1122 64.5602 97.6649 62.1047 97.3805L34.3172 94.163M46.875 90C46.6742 91.5713 47.6112 92.9085 49.125 93.375C50.6388 93.8415 53.0866 92.4117 53.25 90.75C53.4134 89.0883 52.2672 87.6771 50.625 87.375C48.9828 87.0729 47.0758 88.4287 46.875 90ZM60.75 27.375C60.4393 27.2714 60.1036 27.4393 60 27.75C59.8964 28.0607 60.0643 28.3964 60.375 28.5C60.6857 28.6036 61.0214 28.4357 61.125 28.125C61.2286 27.8143 61.0607 27.4786 60.75 27.375ZM68.7081 29.5763L62.7852 28.5892C62.5192 28.5449 62.3721 28.2559 62.4926 28.0147C62.5713 27.8574 62.7434 27.7697 62.9169 27.7987L68.8398 28.7858C69.1058 28.8301 69.2529 29.1191 69.1324 29.3603C69.0537 29.5176 68.8816 29.6053 68.7081 29.5763ZM64.6581 86.7854L38.6575 83.5353C37.4518 83.3846 36.6579 82.2024 36.9748 81.0293L49.8028 33.5307C50.0601 32.578 50.9738 31.9554 51.9545 32.0644L78.2953 34.9911C79.518 35.127 80.3293 36.3239 80.0027 37.5099L66.8344 85.3318C66.5706 86.2896 65.6438 86.9086 64.6581 86.7854Z" stroke="white"/>
</svg>
