<svg width="120" height="120" viewBox="0 0 120 120" fill="none" xmlns="http://www.w3.org/2000/svg">
<g clip-path="url(#clip0_27_1272)">
<path d="M104.25 9.75L107.735 13.0174C109.292 14.4773 109.957 16.6544 109.48 18.7349L95.1738 81.162C94.3407 84.7976 91.1058 87.375 87.376 87.375H82.5M11.25 82.5H84.6317C86.941 82.5 88.9499 80.9185 89.492 78.6738L104.711 15.6586C105.622 11.8835 102.762 8.25 98.8784 8.25H30.8742C28.1162 8.25 25.7135 10.1302 25.0503 12.8072L9.10068 77.1911C8.59327 79.2393 9.46057 81.3816 11.25 82.5ZM11.25 82.5L13.5775 85.2507C14.7175 86.598 16.3929 87.375 18.1578 87.375H55.875M55.875 87.375C56.625 97.125 58.5 103.5 48.75 106.5M55.875 87.375H79.125M48.75 106.5H76.125C82.5 105.375 80.25 96.375 79.125 87.375M48.75 106.5H31.625C30.5204 106.5 29.625 107.395 29.625 108.5V109.375C29.625 110.48 30.5204 111.375 31.625 111.375H74.1938C75.9689 111.375 77.7819 111.16 79.3311 110.294C87.0713 105.964 83.5295 96.9837 82.5 87.375M79.125 87.375H82.5M47.4375 73.6875C46.5055 74.6195 46.5055 76.1305 47.4375 77.0625C48.3695 77.9945 49.8805 77.9945 50.8125 77.0625C51.7445 76.1305 51.7445 74.6195 50.8125 73.6875C49.8805 72.7555 48.3695 72.7555 47.4375 73.6875ZM20.6978 68.25H84.6135C86.0104 68.25 87.2225 67.2858 87.5366 65.9246L98.527 18.2996C98.9608 16.4197 97.5331 14.625 95.6038 14.625H33.139C31.2962 14.625 29.6918 15.884 29.2537 17.674L17.7838 64.5368C17.3213 66.4266 18.7522 68.25 20.6978 68.25Z" stroke="#212121"/>
</g>
<defs>
<clipPath id="clip0_27_1272">
<rect width="120" height="120" fill="white"/>
</clipPath>
</defs>
</svg>
