<svg width="120" height="120" viewBox="0 0 120 120" fill="none" xmlns="http://www.w3.org/2000/svg">
<path d="M95.5204 108V101.101C95.5204 98.892 93.7296 97.1011 91.5204 97.1011H15.3717M95.5204 108L107.059 103.646C108.227 103.206 109 102.088 109 100.839V15C109 12.7909 107.209 11 105 11H91.8773M95.5204 108H16.3717C15.8195 108 15.3717 107.552 15.3717 107V97.1011M15.3717 97.1011C12.9573 97.1011 11 95.1438 11 92.7294V14C11 12.3431 12.3431 11 14 11H91.8773M91.8773 11C93.6989 11 94.4275 11 94.4275 13.1798V93.8315M49.6171 80.7528H86.0483M86.0483 80.7528V76.03H75.4833V85.4757H86.0483V80.7528ZM86.777 22.9925V64.0375C86.777 66.2466 84.9861 68.0375 82.777 68.0375H22.2862C20.0771 68.0375 18.2862 66.2466 18.2862 64.0375V22.9925C18.2862 20.7834 20.0771 18.9925 22.2862 18.9925H82.777C84.9861 18.9925 86.777 20.7834 86.777 22.9925Z" stroke="white"/>
</svg>
