<svg width="120" height="120" viewBox="0 0 120 120" fill="none" xmlns="http://www.w3.org/2000/svg">
<path d="M67.125 69L56.7745 67.4317C55.5675 67.2489 54.3802 67.8646 53.8343 68.9565C52.9858 70.6534 54.0243 72.6868 55.8965 72.9942L64.875 74.4683M67.125 69L75.8399 70.3204C77.7099 70.6038 78.8276 72.556 78.1251 74.3121C77.6139 75.5902 76.2831 76.3413 74.9247 76.1182L64.875 74.4683M67.125 69C66.375 70.5205 64.875 73.7429 64.875 74.4683M27.375 74.1918L76.5215 82.4337C80.5594 83.1109 84.4569 80.63 85.5528 76.6851L93.9375 46.5M27.375 74.1918L28.2768 75.2238C29.6343 76.7773 31.4842 77.8173 33.5169 78.1696L76.6003 85.6374C82.2588 86.6182 87.7196 83.081 89.1381 77.516L95.4902 52.5962C96.0418 50.4323 95.457 48.1364 93.9375 46.5M27.375 74.1918C25.4337 73.3625 24.3887 71.2401 24.9149 69.1958L31.9813 41.7456C32.9906 37.825 36.7696 35.2763 40.7828 35.8097L89.1683 42.2407C91.4811 42.5481 93.3716 44.2366 93.9375 46.5M42.2503 39.9607L79.6705 44.9697C82.7259 45.3787 84.687 48.4282 83.7915 51.3779L80.107 63.5151C79.54 65.3828 77.7078 66.5686 75.7717 66.3208L37.9002 61.4732C34.9058 61.0899 32.9314 58.1607 33.6997 55.2412L36.7516 43.644C37.3934 41.2052 39.7508 39.6261 42.2503 39.9607ZM79.635 51.339L76.9659 60.9478C76.6988 61.9093 75.7637 62.5268 74.7745 62.3949L39.4027 57.6787C38.1991 57.5182 37.415 56.3309 37.74 55.161L40.1762 46.3908C40.5768 44.9485 41.9794 44.0223 43.4632 44.2201L77.9723 48.8213C79.1759 48.9818 79.96 50.1691 79.635 51.339Z" stroke="#212121"/>
</svg>
