<svg width="120" height="120" viewBox="0 0 120 120" fill="none" xmlns="http://www.w3.org/2000/svg">
<path d="M76.125 84L80.0951 19.4857C80.3843 14.7869 76.7066 10.791 72 10.6902M76.125 84C75.75 90 75.225 102.225 76.125 103.125M76.125 84C90.525 82.2 103.125 74.625 107.877 68.25M76.125 84C33 79.5 11.1248 83.25 10.8442 73.5M76.125 103.125C65.4706 103.125 35.3689 101.659 21 97.1498M76.125 103.125C79.1719 103.211 83.3797 102.531 87.75 100.508M72 10.6902L28.125 9.75C25.125 9.75 18.6 12.3 16.5 19.5C14.3986 32.9169 11.0921 56.3381 10.8442 73.5M72 10.6902C97.0248 13.8209 111.937 35.5433 107.877 68.25M107.877 68.25C107.8 68.8711 107.716 69.4961 107.625 70.125C105.064 87.8556 96.1096 96.638 87.75 100.508M10.8442 73.5C10.7087 82.8799 11.4869 90.39 13.8749 93.375C15.032 94.8213 17.567 96.0724 21 97.1498M21 97.1498C20.625 99.0165 20.925 102.975 25.125 103.875C31.875 105.321 74.625 117.015 87.75 100.508M39.8324 89.255C40.7327 88.8549 40.6701 87.5567 39.7354 87.2451L39.6654 87.2218C39.2324 87.0775 38.7654 87.0704 38.3282 87.2015L38.2378 87.2287C37.25 87.525 37.1949 88.903 38.1524 89.286C38.6932 89.5023 39.3002 89.4916 39.8324 89.255ZM66.1081 94.7804L65.7059 95.1323C64.1987 96.4511 61.9162 96.3328 60.5534 94.8652C59.1979 93.4055 59.24 91.135 60.6485 89.7265L61.0264 89.3486C62.5152 87.8598 64.9415 87.9016 66.3781 89.4408C67.8123 90.9775 67.69 93.3962 66.1081 94.7804ZM22.219 88.558C22.622 87.601 22.4576 86.4991 21.7928 85.7014L21.341 85.1592C20.2164 83.8097 18.1223 83.8787 17.0891 85.2994C16.4968 86.1138 16.4077 87.1904 16.858 88.0911L17.1737 88.7223C18.2352 90.8453 21.2979 90.7455 22.219 88.558ZM72.801 25.3005L69.1486 73.7775C69.0663 74.8704 68.1197 75.6934 67.026 75.6231L20.675 72.6434C18.4001 72.4972 16.7072 70.4823 16.9553 68.2163L21.8323 23.6735C21.9989 22.1521 23.284 21 24.8145 21H68.8123C71.1398 21 72.9759 22.9796 72.801 25.3005Z" stroke="#1A6BBB"/>
</svg>
